<?xml version="1.0" encoding="UTF-8"?>
<svg id="a" data-name="Capa_1" xmlns="http://www.w3.org/2000/svg" viewBox="0 0 703.57 144.97">
  <defs>
    <style>
      .b {
        fill: #006eff;
      }
    </style>
  </defs>
  <g>
    <path class="b" d="M208.78,123.03c-5.96,0-11.89-.18-17.79-.55-5.9-.37-12.04-1.23-18.42-2.59V14.58c5.02-.94,10.5-1.65,16.46-2.12,5.96-.47,11.49-.71,16.61-.71,6.9,0,13.24.5,19.04,1.49,5.8.99,10.79,2.69,14.97,5.09,4.18,2.4,7.44,5.56,9.8,9.48,2.35,3.92,3.53,8.75,3.53,14.5,0,8.67-4.18,15.52-12.54,20.53,6.9,2.61,11.6,6.17,14.11,10.66,2.51,4.49,3.76,9.56,3.76,15.2,0,11.39-4.15,19.96-12.46,25.7-8.31,5.75-20.66,8.62-37.07,8.62ZM196.4,55.64h11.91c7.52,0,12.9-.96,16.14-2.9,3.24-1.93,4.86-5.04,4.86-9.33s-1.67-7.47-5.02-9.25c-3.35-1.78-8.26-2.66-14.73-2.66-2.09,0-4.34.03-6.74.08-2.4.05-4.55.18-6.43.39v23.67ZM196.4,74.29v28.05c1.78.21,3.71.37,5.8.47,2.09.11,4.39.16,6.9.16,7.31,0,13.22-1.04,17.71-3.13,4.49-2.09,6.74-5.96,6.74-11.6,0-5.02-1.88-8.59-5.64-10.74-3.76-2.14-9.14-3.21-16.14-3.21h-15.36Z"/>
    <path class="b" d="M309.24,123.19c-6.79-.11-12.3-.84-16.54-2.19-4.23-1.36-7.58-3.26-10.03-5.72-2.46-2.45-4.13-5.43-5.02-8.93-.89-3.5-1.33-7.44-1.33-11.83V3.76l23.35-3.76v89.81c0,2.09.16,3.97.47,5.64.31,1.67.91,3.08,1.8,4.23.89,1.15,2.17,2.09,3.84,2.82,1.67.73,3.92,1.2,6.74,1.41l-3.29,19.28Z"/>
    <path class="b" d="M396.23,118.8c-3.97,1.15-9.09,2.22-15.36,3.21-6.27.99-12.85,1.49-19.75,1.49s-12.83-.94-17.48-2.82c-4.65-1.88-8.33-4.52-11.05-7.92-2.72-3.39-4.65-7.44-5.8-12.15-1.15-4.7-1.72-9.87-1.72-15.52v-45.92h23.35v43.1c0,7.52.99,12.96,2.98,16.3,1.98,3.34,5.69,5.02,11.13,5.02,1.67,0,3.45-.08,5.33-.24,1.88-.16,3.55-.34,5.01-.55v-63.63h23.35v79.62Z"/>
    <path class="b" d="M414.25,81.03c0-7.31,1.12-13.71,3.37-19.2,2.25-5.49,5.2-10.06,8.85-13.71,3.66-3.66,7.86-6.43,12.62-8.31,4.75-1.88,9.64-2.82,14.65-2.82,11.7,0,20.95,3.58,27.74,10.74,6.79,7.16,10.19,17.69,10.19,31.58,0,1.36-.05,2.85-.16,4.47-.11,1.62-.21,3.06-.31,4.31h-52.97c.52,4.81,2.77,8.62,6.74,11.44,3.97,2.82,9.3,4.23,15.99,4.23,4.28,0,8.49-.39,12.62-1.18,4.13-.78,7.5-1.75,10.11-2.9l3.13,18.96c-1.25.63-2.93,1.25-5.02,1.88-2.09.63-4.42,1.17-6.97,1.65-2.56.47-5.3.86-8.23,1.17-2.93.31-5.85.47-8.78.47-7.42,0-13.87-1.1-19.36-3.29-5.49-2.19-10.03-5.2-13.64-9.01-3.6-3.81-6.27-8.33-7.99-13.56-1.72-5.22-2.59-10.87-2.59-16.93ZM469.1,72.1c-.11-1.98-.45-3.92-1.02-5.8-.58-1.88-1.46-3.55-2.66-5.02-1.2-1.46-2.72-2.66-4.54-3.6-1.83-.94-4.1-1.41-6.82-1.41s-4.86.45-6.74,1.33c-1.88.89-3.45,2.06-4.7,3.53-1.25,1.46-2.22,3.16-2.9,5.09-.68,1.94-1.18,3.89-1.49,5.88h30.88Z"/>
    <path class="b" d="M586.34,80.4c0,6.58-.97,12.54-2.9,17.87-1.93,5.33-4.73,9.87-8.38,13.64-3.66,3.76-8.15,6.66-13.48,8.7-5.33,2.04-11.39,3.06-18.18,3.06-2.82,0-5.77-.13-8.86-.39-3.08-.26-6.11-.6-9.09-1.02-2.98-.42-5.83-.91-8.54-1.49-2.72-.57-5.12-1.17-7.21-1.8V3.76l23.35-3.76v41.06c2.61-1.15,5.33-2.04,8.15-2.66,2.82-.63,5.85-.94,9.09-.94,5.85,0,11.02,1.02,15.52,3.06,4.49,2.04,8.25,4.94,11.28,8.7,3.03,3.76,5.33,8.28,6.9,13.56,1.57,5.28,2.35,11.15,2.35,17.63ZM562.51,79.77c0-15.05-5.54-22.57-16.61-22.57-2.41,0-4.78.31-7.13.94-2.35.63-4.26,1.41-5.72,2.35v42.47c1.15.21,2.61.39,4.39.55,1.78.16,3.71.24,5.8.24,6.37,0,11.18-2.19,14.42-6.58,3.24-4.39,4.86-10.19,4.86-17.4Z"/>
    <path class="b" d="M629.9,15.36c0,4.29-1.39,7.66-4.15,10.11-2.77,2.46-6.03,3.68-9.79,3.68s-7.03-1.23-9.8-3.68c-2.77-2.45-4.15-5.82-4.15-10.11s1.38-7.65,4.15-10.11c2.77-2.45,6.03-3.68,9.8-3.68s7.03,1.23,9.79,3.68c2.77,2.46,4.15,5.83,4.15,10.11ZM627.71,121.62h-23.35V39.18h23.35v82.44Z"/>
    <path class="b" d="M648.87,18.65l23.35-3.76v24.29h28.05v19.43h-28.05v29c0,4.91.86,8.83,2.59,11.75,1.72,2.93,5.2,4.39,10.42,4.39,2.51,0,5.09-.24,7.76-.71,2.66-.47,5.09-1.12,7.29-1.96l3.29,18.18c-2.82,1.15-5.96,2.14-9.4,2.98-3.45.83-7.68,1.25-12.7,1.25-6.38,0-11.65-.86-15.83-2.59-4.18-1.72-7.52-4.13-10.03-7.21-2.51-3.08-4.26-6.82-5.25-11.21-1-4.39-1.49-9.25-1.49-14.58V18.65Z"/>
  </g>
  <path class="b" d="M95.72,6.31v23.93h-23.93V6.31h-23.93v23.93h-23.93V6.31H0v67.57c0,44.7,59.83,71.09,59.83,71.09,0,0,59.83-26.39,59.83-71.09V6.31h-23.93Z"/>
</svg>