<?xml version="1.0" encoding="UTF-8"?>
<svg xmlns="http://www.w3.org/2000/svg" version="1.1" viewBox="0 0 113.5 126">
  <defs>
    <style>
      .cls-1 {
        fill: #a3caff;
      }
    </style>
  </defs>
  <!-- Generator: Adobe Illustrator 28.6.0, SVG Export Plug-In . SVG Version: 1.2.0 Build 709)  -->
  <g>
    <g id="Capa_1">
      <path class="cls-1" d="M90.3,105c-1.3,0-2,1-2.1,2.5,0,2.6,0,5.2,0,7.9v8c0,1.6.8,2.6,2.1,2.6,1.3,0,2.1-1,2.1-2.5,0-5.3,0-10.6,0-15.9s-.8-2.6-2.1-2.6h0ZM44.2,33.5c0,6.9,5.6,12.6,12.5,12.7,6.9,0,12.6-5.6,12.7-12.5,0-6.9-5.6-12.6-12.5-12.7-6.9,0-12.6,5.6-12.7,12.5ZM56.9,25.2c4.6,0,8.3,3.8,8.3,8.4,0,4.6-3.8,8.4-8.5,8.4-4.6,0-8.4-3.8-8.3-8.5,0-4.6,3.9-8.4,8.5-8.3ZM39.9,21c5.7,0,10.5-4.7,10.5-10.4,0-5.8-4.6-10.6-10.4-10.6-5.8,0-10.6,4.7-10.6,10.4,0,5.8,4.7,10.5,10.5,10.6ZM40.1,4.2c3.5,0,6.2,3,6.1,6.5-.1,3.4-3,6.1-6.5,6.1-3.5,0-6.2-3-6.1-6.5.1-3.4,3-6.1,6.5-6.1h0ZM103,37.8c0-6.9-5.6-12.6-12.6-12.6s-12.6,5.6-12.6,12.6c0,6.9,5.6,12.6,12.6,12.6,6.9,0,12.6-5.6,12.6-12.6ZM82,37.6c0-4.6,4-8.3,8.7-8.2,4.6.1,8.2,3.9,8.1,8.6,0,4.6-3.9,8.3-8.6,8.2-4.6,0-8.3-4-8.2-8.6h0ZM109,58.5c-2-2.2-4.4-3.8-7.4-3.8-5.2-.2-10.3,0-15.5,0-1.2,0-2.1.9-2.1,2.1,0,1.3.9,2.1,2.5,2.1,4.6,0,9.3,0,13.9,0,1.8,0,3.3.6,4.7,1.8,2.6,2.3,4.1,5.2,4.1,8.7,0,9.7,0,19.3,0,29,0,1.6-.8,2.5-2.1,2.5-1.3,0-2.1-.9-2.1-2.5v-.9c0-7.7,0-15.5,0-23.2,0-.8-.4-1.8-1-2.4-.4-.4-1.6-.4-2,0-.6.4-1.1,1.4-1.1,2.1,0,16.6,0,33.1,0,49.7s0,.4,0,.7c.2,1.1,1.2,1.9,2.3,1.7,1.1-.1,1.9-1,1.9-2.3,0-4,0-8,0-11.9v-7c.2,0,.4,0,.5,0,4.6.8,7.9-1.9,7.9-6.6v-28.5c0-4.3-1.6-8-4.4-11.2h0ZM73.5,21c5.8,0,10.6-4.7,10.6-10.4,0-5.8-4.7-10.5-10.5-10.5s-10.5,4.7-10.5,10.4c0,5.8,4.7,10.6,10.4,10.6h0ZM73.6,4.2c3.5,0,6.3,2.9,6.2,6.4,0,3.4-2.9,6.2-6.3,6.2-3.5,0-6.3-2.9-6.2-6.4,0-3.4,2.9-6.2,6.3-6.2ZM23.2,25.2c-6.9,0-12.6,5.6-12.6,12.6,0,6.9,5.7,12.6,12.6,12.6,6.9,0,12.6-5.6,12.6-12.6s-5.6-12.6-12.6-12.6h0ZM23.1,46.2c-4.6,0-8.4-3.8-8.3-8.5,0-4.6,3.9-8.4,8.5-8.3,4.6,0,8.3,3.8,8.3,8.4,0,4.6-3.8,8.4-8.5,8.4ZM23.2,105c-1.3,0-2.1,1-2.1,2.6v15.7c0,1.7.8,2.6,2.1,2.6s2.1-1,2.1-2.6v-15.7c0-1.7-.8-2.6-2.1-2.6h0ZM56.8,94.5c-1.2,0-2.1.9-2.1,2.2,0,9,0,18,0,27,0,.7.5,1.5,1,1.9,1.4,1,3.1-.2,3.1-2.1,0-4.4,0-8.8,0-13.2s0-9,0-13.5c0-1.3-.9-2.2-2.1-2.2h0ZM67.3,71.5c.1,1.2,1,2,2.1,1.9,1.2,0,1.8-.7,2.1-1.8,0-.4,0-.8,0-1.2,0-4.5-3.4-7.3-7.8-6.5-4.9.8-9.7,1.6-14.6,2.4-1.6.3-2.7-.4-2.8-1.8,0-1.6-1.5-2.4-2.5-2.2-1.3.2-2,1.4-1.7,3.1.6,3.6,3.9,5.8,7.6,5.2,4.4-.7,8.8-1.5,13.2-2.2,3.8-.6,3.9-.6,4.4,3.2h0ZM65.7,50.4c-6.6-.1-13.2,0-19.8,0-5.9,0-11.1,4.5-11.9,10.4-.4,3.2-.5,6.5-.2,9.7.4,4.4,3,7.3,7.2,8.8.3.1.7.2,1,.3v43.2c0,.4,0,.9,0,1.3.2,1.1.9,1.8,2.1,1.8s1.8-.7,2.1-1.8c0-.3,0-.6,0-.9v-44.9c0-1.9-.6-2.6-2.5-2.8-3.3-.3-5.8-2.9-5.9-6.2,0-2.2,0-4.4,0-6.6,0-4.5,3.7-8.1,8.1-8.1,6.5,0,13,0,19.4,0,4.9,0,9.1,3.6,10,8.5.3,1.8.2,3.7.2,5.6,0,4.3-2.6,6.9-6.8,6.9-5.2,0-10.5,0-15.8,0s-2.6.8-2.6,2.1c0,1.3,1,2.1,2.6,2.1h14.1v43.6c0,1.6.8,2.5,2,2.5,1.3,0,2.1-.9,2.2-2.6v-43.8c5.1-1.8,7.8-4.6,8.3-9.1.2-2,.1-4,0-6-.2-7.6-6.5-14-14.2-14.1h0ZM27,54.6c-4.8,0-9.6,0-14.4,0-1.3,0-2.7.3-3.9.9C3.1,58.3.3,63,.1,69c-.2,9.9,0,19.8,0,29.6,0,3.2,2.2,5.8,5.3,6.2,1,.2,2,0,3.1,0v18.4c0,1.7.8,2.7,2.1,2.7,1.3,0,2.1-1,2.1-2.7v-49.3c0-1.6-.8-2.6-2.1-2.6-1.3,0-2.1,1-2.1,2.6v15.9c0,2.9,0,5.8,0,8.7,0,1.3-.9,2.2-2.1,2.2-1.2,0-2-.9-2.1-2.2v-.4c0-9.6,0-19.2,0-28.7,0-3.4,1.4-6.3,3.8-8.6,1.4-1.3,3.1-2,5.1-2,4.6,0,9.2,0,13.8,0,1.5,0,2.5-.8,2.5-2.1,0-1.3-1-2.1-2.5-2.1h0Z"/>
    </g>
  </g>
</svg>