<?xml version="1.0" encoding="UTF-8"?>
<svg xmlns="http://www.w3.org/2000/svg" version="1.1" viewBox="0 0 128 128">
  <defs>
    <style>
      .cls-1 {
        fill: #006eff;
      }
    </style>
  </defs>
  <!-- Generator: Adobe Illustrator 28.6.0, SVG Export Plug-In . SVG Version: 1.2.0 Build 709)  -->
  <g>
    <g id="Capa_1">
      <g>
        <path class="cls-1" d="M127.5,103.4c-.8,1-1.8,1.2-3,1.2-11.8,0-23.6,0-35.4,0-.9,0-1.5.2-2.1,1-11.6,14.8-34.3,14.8-45.9,0-.6-.8-1.2-1-2.1-1-11.8,0-23.6,0-35.4,0-1.2,0-2.3-.2-3-1.2,0-.5,0-1,0-1.5,1.6-1.7,3.3-3.3,4.9-5,3-3.1,5.9-6.2,8.9-9.3-2-2.1-4.2-4.4-6.4-6.7-2.5-2.6-4.9-5.3-7.4-7.9,0-.4,0-.8,0-1.2.8-1.7,2.5-1.3,3.7-1.4.3-2.1.4-4.2.8-6.1.2-1.1.7-2.1,1.1-3.1.6-1.5,1.7-2.4,3.3-3,2.9-1.2,5.8-2.7,8.6-4.1,1.7-.9,2.6-.7,3.6.9,1,1.8,2.1,3.6,3.2,5.5,1.1-1.8,2-3.5,3-5.2,1.2-2.1,1.9-2.2,4.1-1,2.3,1.3,4.6,2.4,7,3.7.2-.8.3-1.4.5-2,.3-1.1.7-2.3,1-3.4.6-1.9,1.8-2.9,3.7-3.7,3.9-1.6,7.7-3.6,11.5-5.5,1.9-1,2.7-.8,3.7,1,1.3,2.3,2.6,4.6,4,6.9.2.3.4.7.7,1.2.6-1,1.1-1.9,1.6-2.8,1.1-1.9,2.1-3.7,3.2-5.6.8-1.4,1.8-1.7,3.2-.9,4.2,2.5,8.5,4.7,13.2,6.3.6.2,1.3.8,1.5,1.4.8,1.9,1.4,3.9,2.1,5.8.1.4.2.8.3,1.4,2.5-1.3,4.9-2.5,7.2-3.8,1.8-1,2.7-.8,3.7.9,1,1.7,2,3.5,3.2,5.4,1.1-1.9,2.1-3.6,3.1-5.3,1.1-1.9,1.9-2,3.9-1,3,1.5,6,2.8,9,4.3.8.4,1.6,1,2.1,1.8,1.7,2.7,2.4,5.7,2.3,8.9,0,.4,0,.8,0,1.3,1.4.2,3.1-.3,3.9,1.4v1.2c-.4.5-.8,1-1.3,1.5-4,4.2-8,8.3-12,12.5-.3.3-.6.6-.8.8,1.7,1.7,3.2,3.4,4.8,5,3,3.1,6.1,6.1,9.2,9.1v1.5ZM64,62.2c-14.4.1-25.5,11.4-25.3,25.7.1,13.7,11.7,24.9,25.5,24.8,13.9-.1,25.2-11.6,25.1-25.5-.1-13.9-11.5-25.2-25.3-25ZM120.7,74.4h-30.5c2,4.2,3.1,8.6,3.1,13.1,0,4.6-1.1,8.9-3.1,13h30.3c-.4-.4-.7-.7-.9-1-3.3-3.2-6.5-6.4-9.8-9.6-1.6-1.6-1.6-2.4,0-4,3.3-3.5,6.7-7,10-10.5.3-.3.6-.7,1-1.1ZM7.4,100.6h30.4c-4.1-8.8-4.1-17.4,0-26.1H7.3c.5.5.8.9,1.1,1.2,3.3,3.5,6.7,7,10,10.5,1.4,1.4,1.3,2.3,0,3.7-2.4,2.4-4.8,4.7-7.3,7.1-1.2,1.1-2.3,2.3-3.7,3.6ZM30.7,58.2c-.1.2-.3.5-.5.8-1.2,2.1-2.4,4.2-3.6,6.2-1,1.6-2.6,1.6-3.6,0-.3-.5-.6-1-.9-1.5-1.1-1.9-2.2-3.8-3.2-5.5-2.9,1.3-5.6,2.4-8.3,3.7-.3.2-.7.5-.9.8-1.2,2.4-1.6,4.9-1.2,7.6h29.9c0-2.7,0-5.4,0-8,0-.2-.3-.6-.5-.7-2.4-1.1-4.8-2.2-7.2-3.3ZM97.3,58.1c-1.8.9-3.5,1.7-5.2,2.5-.8.4-2,.5-2.4,1.2-.4.6,0,1.7,0,2.6,0,1.9,0,3.8,0,5.8h29.7c.4-2.7,0-5.2-1.2-7.6-.1-.3-.4-.6-.7-.7-2.8-1.3-5.6-2.5-8.5-3.8-1.2,2.1-2.5,4.3-3.8,6.5-1.2,2.1-2.8,2.1-4.1,0-1.3-2.2-2.6-4.4-3.8-6.6ZM42.2,68c5.9-6.2,12.9-9.4,20.8-9.7-2.1-3.6-4.3-7.3-6.3-10.7-3.9,1.7-7.7,3.4-11.4,5.1-.5.2-.9.8-1.1,1.3-1.6,4.4-2,9-1.9,14.1ZM65.1,58.2c8,.3,14.9,3.6,20.8,9.7,0-5-.4-9.5-1.9-14-.3-.8-.7-1.2-1.5-1.6-2.5-1-5-2.1-7.5-3.3-1.2-.5-2.3-1.2-3.5-1.9-2.2,3.7-4.3,7.4-6.4,11Z"/>
        <path class="cls-1" d="M64.3,42.3c-2.8,0-5.2-1.1-7.1-3-5-5.1-6.8-11.5-5.5-18.4,1.2-6.1,7.4-10.2,13.4-9.5,6.6.7,11.7,5.9,11.6,12.3,0,5.3-1.2,10.4-4.7,14.7-2,2.5-4.5,3.9-7.8,3.9ZM64,15.3c-4.4,0-8.3,3.2-8.7,7.6-.4,4.2.5,8.1,2.9,11.6,3.7,5.5,9.2,5.1,12.2-.7,1.4-2.8,2-5.8,2.3-8.9.5-5.1-3.5-9.5-8.7-9.6Z"/>
        <path class="cls-1" d="M93,38.7c-.3-5.8,3.9-10.6,9.7-11,5.6-.4,10.6,4,10.8,9.6.1,4.1-.8,8.1-3.4,11.5-3.3,4.5-8.8,4.9-12.8.9-2.6-2.6-4.1-6.4-4.4-11.1ZM96.9,38.7c0,.6.2,1.6.4,2.5.5,2.3,1.4,4.4,3.2,6,2.1,1.9,4.5,1.7,6.3-.4.6-.8,1.2-1.6,1.5-2.5.6-1.8,1-3.6,1.3-5.4.5-2.6-.5-4.6-2.6-6.1-2.2-1.5-4.5-1.6-6.8-.3-2.2,1.3-3.2,3.3-3.2,6.2Z"/>
        <path class="cls-1" d="M34.9,39.8c-.1,1.8-.8,5.1-2.6,8.1-3.6,5.8-10.2,6.2-14.4.8-3.1-4.1-4.3-8.7-3-13.8,1.3-5.1,6.6-8.1,11.9-7.1,4.8.9,8.5,5.6,8.1,11.9ZM31.1,38.4c.2-3.4-2.2-6.2-5.5-6.7-3.1-.5-6.4,1.6-7,4.8-.6,3.5.2,6.7,2.3,9.6,2.5,3.5,6,3.2,8.2-.5,1.3-2.3,1.8-4.8,2-7.2Z"/>
        <path class="cls-1" d="M51.9,102.7c.4-2.7.7-5.5,1.2-8.3.2-1.2,0-2.1-.9-3-1.9-1.9-3.7-3.9-5.6-5.8-.7-.7-1.2-1.4-.9-2.4.3-1.1,1.2-1.4,2.2-1.5,2.9-.5,5.8-1,8.6-1.6.5,0,1-.5,1.3-.9,1.5-2.6,2.9-5.2,4.2-7.8.5-.9,1.1-1.7,2.1-1.4.7.2,1.5.8,1.9,1.5,1.5,2.5,2.8,5.1,4.2,7.7.3.5.9.9,1.4,1.1,2.9.6,5.9,1.1,8.9,1.7,2,.4,2.6,2.1,1.1,3.6-2,2.1-4,4.3-6.1,6.3-.6.6-.8,1.2-.7,2,.4,2.8.8,5.5,1.2,8.3.1,1,.2,2-.7,2.7-.9.7-1.8.3-2.7-.1-2.6-1.3-5.2-2.5-7.8-3.7-.5-.2-1.2-.2-1.7,0-2.8,1.3-5.5,2.6-8.3,3.9-1.7.8-3.1-.2-3-2.1ZM51.5,85.1c1.7,1.8,3.2,3.4,4.8,5,.9.9,1.1,1.8.9,3-.4,2.2-.6,4.3-.9,6.7,2.1-1,4-1.8,5.9-2.8,1.3-.7,2.4-.7,3.7,0,1.9,1,3.8,1.8,5.9,2.8-.3-2.4-.6-4.6-.9-6.7-.2-1.2,0-2.1,1-3,1.6-1.6,3.1-3.2,4.7-4.9-1.8-.3-3.4-.8-5-.9-2.6-.1-4.1-1.3-5.1-3.7-.6-1.5-1.5-2.9-2.4-4.4-1.2,2.1-2.2,4-3.2,6-.6,1.1-1.3,1.7-2.6,1.9-2.2.3-4.4.8-6.7,1.2Z"/>
      </g>
    </g>
  </g>
</svg>